# xmcd
#
# Track frame offsets:
#	150
#	10523
#	18106
#	26146
#	35469
#	45002
#	56995
#	68110
#	81115
#	90543
#	103878
#	111618
#
# Disc length: 1577 seconds
#
# Revision: 1
# Processed by: cddbd v1.5.2PL0 Copyright (c) Steve Scherf et al.
# Submitted via: audiograbber 1.83.01
#
DISCID=9006270c
DTITLE=Chubby Wise - Plays Bob Wills
DYEAR=1970
DGENRE=Bluegrass
TTITLE0=San Antonio Rose
TTITLE1=My Confession
TTITLE2=Osage Stomp
TTITLE3=The Convict And The Rose
TTITLE4=Don't Let Your Deal Go Down
TTITLE5=Faded Love
TTITLE6=Let Me Ride In Your Little Red Wagon
TTITLE7=Silver Bells
TTITLE8=Milk Cow Blues
TTITLE9=Maiden's Prayer
TTITLE10=Home In San Antone
TTITLE11=Hang Your Head In Shame
EXTD=I made this CD from one of my LP's
EXTT0=
EXTT1=
EXTT2=
EXTT3=
EXTT4=
EXTT5=
EXTT6=
EXTT7=
EXTT8=
EXTT9=
EXTT10=
EXTT11=
PLAYORDER=
